 <svg  version="1.0" xmlns="http://www.w3.org/2000/svg"  width="900.000000pt" height="900.000000pt" viewBox="0 0 900.000000 900.000000"  preserveAspectRatio="xMidYMid meet">  <g transform="translate(0.000000,900.000000) scale(0.100000,-0.100000)" fill="#00ac58" stroke="none"> <path d="M2630 6255 c-237 -28 -384 -70 -590 -168 -66 -32 -241 -136 -270 -161 -14 -12 -37 -30 -51 -39 -44 -27 -198 -177 -269 -262 -185 -223 -302 -465 -375 -775 -22 -95 -28 -146 -32 -295 -5 -205 5 -323 41 -479 73 -309 230 -598 453 -829 263 -273 586 -445 973 -518 158 -31 410 -37 535 -14 236 44 267 52 470 127 17 7 73 34 125 61 293 153 541 387 707 667 82 138 173 346 173 394 0 8 8 24 18 35 l17 22 649 -1 c721 -1 685 3 747 -68 59 -67 59 -65 61 -509 3 -408 3 -408 27 -446 29 -47 74 -82 126 -97 29 -8 259 -10 840 -8 l800 3 42 22 c47 26 77 63 98 124 23 64 22 1811 0 1887 -17 57 -77 124 -124 138 -14 4 -766 10 -1671 13 l-1645 6 -22 45 c-135 279 -188 367 -317 517 -260 305 -640 525 -1016 587 -233 38 -339 43 -520 21z m-330 -1006 c130 -28 297 -148 440 -317 72 -85 86 -83 177 23 270 313 560 389 763 199 56 -52 74 -82 101 -169 24 -76 24 -110 0 -216 -28 -119 -43 -163 -94 -270 -122 -251 -283 -482 -573 -819 -78 -91 -167 -189 -199 -218 -49 -45 -62 -52 -98 -52 -41 0 -46 4 -156 117 -179 187 -444 514 -537 666 -16 26 -43 70 -61 97 -66 100 -148 273 -188 400 -22 70 -27 104 -27 190 -1 94 2 111 25 160 78 162 251 247 427 209z m4800 -749 c63 -44 149 -103 190 -131 168 -117 198 -140 204 -162 10 -38 7 -744 -4 -771 l-10 -26 -490 0 -490 0 -10 26 c-11 27 -14 733 -4 772 6 19 120 110 279 222 17 12 68 50 115 85 47 35 90 64 95 65 6 0 62 -36 125 -80z"/> </g> </svg> 